<svg width="198" height="23" viewBox="0 0 198 23" fill="none" xmlns="http://www.w3.org/2000/svg">
<path d="M18.21 0.999999V22H15.21V12.64H3.15V22H0.15V0.999999H3.15V10.03H15.21V0.999999H18.21ZM44.2357 19.39V22H28.9957V0.999999H43.8157V3.61H31.9957V10.06H42.5257V12.61H31.9957V19.39H44.2357ZM66.9734 16.75H55.8134L53.5034 22H50.4134L59.9234 0.999999H62.8934L72.4334 22H69.2834L66.9734 16.75ZM65.9234 14.35L61.3934 4.06L56.8634 14.35H65.9234ZM80.066 0.999999H83.066V19.39H94.436V22H80.066V0.999999ZM104.586 3.61H97.3856V0.999999H114.756V3.61H107.556V22H104.586V3.61ZM140.583 0.999999V22H137.583V12.64H125.523V22H122.523V0.999999H125.523V10.03H137.583V0.999999H140.583ZM151.639 22.18C151.079 22.18 150.599 21.99 150.199 21.61C149.799 21.21 149.599 20.71 149.599 20.11C149.599 19.53 149.799 19.05 150.199 18.67C150.599 18.27 151.079 18.07 151.639 18.07C152.199 18.07 152.669 18.26 153.049 18.64C153.429 19.02 153.619 19.51 153.619 20.11C153.619 20.71 153.419 21.21 153.019 21.61C152.639 21.99 152.179 22.18 151.639 22.18ZM162.666 0.999999H165.666V22H162.666V0.999999ZM185.933 22.24C183.813 22.24 181.903 21.78 180.203 20.86C178.503 19.92 177.163 18.63 176.183 16.99C175.223 15.35 174.743 13.52 174.743 11.5C174.743 9.48 175.223 7.65 176.183 6.01C177.163 4.37 178.503 3.09 180.203 2.17C181.903 1.23 183.813 0.76 185.933 0.76C188.033 0.76 189.933 1.23 191.633 2.17C193.333 3.09 194.663 4.37 195.623 6.01C196.583 7.63 197.063 9.46 197.063 11.5C197.063 13.54 196.583 15.38 195.623 17.02C194.663 18.64 193.333 19.92 191.633 20.86C189.933 21.78 188.033 22.24 185.933 22.24ZM185.933 19.57C187.473 19.57 188.853 19.22 190.073 18.52C191.313 17.82 192.283 16.86 192.983 15.64C193.703 14.4 194.063 13.02 194.063 11.5C194.063 9.98 193.703 8.61 192.983 7.39C192.283 6.15 191.313 5.18 190.073 4.48C188.853 3.78 187.473 3.43 185.933 3.43C184.393 3.43 182.993 3.78 181.733 4.48C180.493 5.18 179.513 6.15 178.793 7.39C178.093 8.61 177.743 9.98 177.743 11.5C177.743 13.02 178.093 14.4 178.793 15.64C179.513 16.86 180.493 17.82 181.733 18.52C182.993 19.22 184.393 19.57 185.933 19.57Z" fill="url(#paint0_linear_9_613)"/>
<defs>
<linearGradient id="paint0_linear_9_613" x1="-3" y1="11" x2="199" y2="11" gradientUnits="userSpaceOnUse">
<stop stop-color="#ECAA80"/>
<stop offset="1" stop-color="#725DE5"/>
</linearGradient>
</defs>
</svg>
